<mxfile host="app.diagrams.net" agent="Mozilla/5.0 (Windows NT 10.0; Win64; x64) AppleWebKit/537.36 (KHTML, like Gecko) Chrome/134.0.0.0 Safari/537.36 Edg/134.0.0.0" version="26.1.2">
  <diagram id="C5RBs43oDa-KdzZeNtuy" name="Page-1">
    <mxGraphModel dx="1113" dy="707" grid="0" gridSize="10" guides="1" tooltips="1" connect="1" arrows="1" fold="1" page="0" pageScale="1" pageWidth="827" pageHeight="1169" math="0" shadow="0">
      <root>
        <mxCell id="WIyWlLk6GJQsqaUBKTNV-0" />
        <mxCell id="WIyWlLk6GJQsqaUBKTNV-1" parent="WIyWlLk6GJQsqaUBKTNV-0" />
        <mxCell id="5ON31uRr9ePw7dC-DvoW-0" value="student" style="swimlane;childLayout=stackLayout;horizontal=1;startSize=50;horizontalStack=0;rounded=1;fontSize=14;fontStyle=0;strokeWidth=2;resizeParent=0;resizeLast=1;shadow=0;dashed=0;align=center;arcSize=4;whiteSpace=wrap;html=1;fillColor=#dae8fc;strokeColor=#6c8ebf;" vertex="1" parent="WIyWlLk6GJQsqaUBKTNV-1">
          <mxGeometry x="80" y="80" width="160" height="120" as="geometry" />
        </mxCell>
        <mxCell id="5ON31uRr9ePw7dC-DvoW-1" value="&lt;font style=&quot;font-size: 15px;&quot;&gt;&lt;u&gt;ID&lt;/u&gt;&lt;/font&gt;&lt;div&gt;&lt;font style=&quot;font-size: 15px;&quot;&gt;name&lt;/font&gt;&lt;/div&gt;&lt;div&gt;&lt;font style=&quot;font-size: 15px;&quot;&gt;tot_cred&lt;/font&gt;&lt;/div&gt;" style="align=left;strokeColor=none;fillColor=none;spacingLeft=4;spacingRight=4;fontSize=12;verticalAlign=top;resizable=0;rotatable=0;part=1;html=1;whiteSpace=wrap;" vertex="1" parent="5ON31uRr9ePw7dC-DvoW-0">
          <mxGeometry y="50" width="160" height="70" as="geometry" />
        </mxCell>
        <mxCell id="5ON31uRr9ePw7dC-DvoW-2" value="course" style="swimlane;childLayout=stackLayout;horizontal=1;startSize=50;horizontalStack=0;rounded=1;fontSize=14;fontStyle=0;strokeWidth=2;resizeParent=0;resizeLast=1;shadow=0;dashed=0;align=center;arcSize=4;whiteSpace=wrap;html=1;fillColor=#dae8fc;strokeColor=#6c8ebf;" vertex="1" parent="WIyWlLk6GJQsqaUBKTNV-1">
          <mxGeometry x="840" y="89" width="160" height="120" as="geometry" />
        </mxCell>
        <mxCell id="5ON31uRr9ePw7dC-DvoW-3" value="&lt;span style=&quot;font-size: 15px;&quot;&gt;&lt;u&gt;course_id&lt;/u&gt;&lt;/span&gt;&lt;div&gt;&lt;span style=&quot;font-size: 15px;&quot;&gt;title&lt;/span&gt;&lt;/div&gt;&lt;div&gt;&lt;span style=&quot;font-size: 15px;&quot;&gt;credits&lt;/span&gt;&lt;/div&gt;" style="align=left;strokeColor=none;fillColor=none;spacingLeft=4;spacingRight=4;fontSize=12;verticalAlign=top;resizable=0;rotatable=0;part=1;html=1;whiteSpace=wrap;" vertex="1" parent="5ON31uRr9ePw7dC-DvoW-2">
          <mxGeometry y="50" width="160" height="70" as="geometry" />
        </mxCell>
        <mxCell id="5ON31uRr9ePw7dC-DvoW-4" value="section" style="swimlane;fontStyle=0;childLayout=stackLayout;horizontal=1;startSize=30;horizontalStack=0;resizeParent=1;resizeParentMax=0;resizeLast=0;collapsible=1;marginBottom=0;whiteSpace=wrap;html=1;rounded=1;fillColor=#dae8fc;strokeColor=#6c8ebf;" vertex="1" parent="WIyWlLk6GJQsqaUBKTNV-1">
          <mxGeometry x="430" y="89" width="170" height="122" as="geometry" />
        </mxCell>
        <mxCell id="5ON31uRr9ePw7dC-DvoW-5" value="" style="endArrow=none;dashed=1;html=1;rounded=0;entryX=0.521;entryY=0.956;entryDx=0;entryDy=0;entryPerimeter=0;" edge="1" parent="5ON31uRr9ePw7dC-DvoW-4" target="5ON31uRr9ePw7dC-DvoW-6">
          <mxGeometry width="50" height="50" relative="1" as="geometry">
            <mxPoint y="60" as="sourcePoint" />
            <mxPoint x="50" y="10" as="targetPoint" />
          </mxGeometry>
        </mxCell>
        <mxCell id="5ON31uRr9ePw7dC-DvoW-6" value="&lt;span style=&quot;font-size: 15px;&quot;&gt;sec_id&lt;/span&gt;" style="text;strokeColor=none;fillColor=none;align=left;verticalAlign=middle;spacingLeft=4;spacingRight=4;overflow=hidden;points=[[0,0.5],[1,0.5]];portConstraint=eastwest;rotatable=0;whiteSpace=wrap;html=1;" vertex="1" parent="5ON31uRr9ePw7dC-DvoW-4">
          <mxGeometry y="30" width="170" height="32" as="geometry" />
        </mxCell>
        <mxCell id="5ON31uRr9ePw7dC-DvoW-7" value="&lt;span style=&quot;font-size: 15px;&quot;&gt;semester&lt;/span&gt;" style="text;strokeColor=none;fillColor=none;align=left;verticalAlign=middle;spacingLeft=4;spacingRight=4;overflow=hidden;points=[[0,0.5],[1,0.5]];portConstraint=eastwest;rotatable=0;whiteSpace=wrap;html=1;" vertex="1" parent="5ON31uRr9ePw7dC-DvoW-4">
          <mxGeometry y="62" width="170" height="30" as="geometry" />
        </mxCell>
        <mxCell id="5ON31uRr9ePw7dC-DvoW-8" value="&lt;span style=&quot;font-size: 15px;&quot;&gt;year&lt;/span&gt;" style="text;strokeColor=none;fillColor=none;align=left;verticalAlign=middle;spacingLeft=4;spacingRight=4;overflow=hidden;points=[[0,0.5],[1,0.5]];portConstraint=eastwest;rotatable=0;whiteSpace=wrap;html=1;" vertex="1" parent="5ON31uRr9ePw7dC-DvoW-4">
          <mxGeometry y="92" width="170" height="30" as="geometry" />
        </mxCell>
        <mxCell id="5ON31uRr9ePw7dC-DvoW-10" value="" style="endArrow=none;dashed=1;html=1;rounded=0;exitX=-0.004;exitY=-0.081;exitDx=0;exitDy=0;exitPerimeter=0;entryX=0.498;entryY=0.913;entryDx=0;entryDy=0;entryPerimeter=0;" edge="1" parent="5ON31uRr9ePw7dC-DvoW-4" source="5ON31uRr9ePw7dC-DvoW-8" target="5ON31uRr9ePw7dC-DvoW-7">
          <mxGeometry width="50" height="50" relative="1" as="geometry">
            <mxPoint x="150" y="120" as="sourcePoint" />
            <mxPoint x="85" y="90" as="targetPoint" />
          </mxGeometry>
        </mxCell>
        <mxCell id="5ON31uRr9ePw7dC-DvoW-11" value="" style="endArrow=none;dashed=1;html=1;rounded=0;entryX=0.229;entryY=0.867;entryDx=0;entryDy=0;entryPerimeter=0;" edge="1" parent="5ON31uRr9ePw7dC-DvoW-4" target="5ON31uRr9ePw7dC-DvoW-8">
          <mxGeometry width="50" height="50" relative="1" as="geometry">
            <mxPoint x="4.003333333333387" y="118" as="sourcePoint" />
            <mxPoint x="30.670000000000016" y="106" as="targetPoint" />
          </mxGeometry>
        </mxCell>
        <mxCell id="5ON31uRr9ePw7dC-DvoW-9" value="" style="rounded=1;whiteSpace=wrap;html=1;strokeWidth=1;fillColor=none;" vertex="1" parent="WIyWlLk6GJQsqaUBKTNV-1">
          <mxGeometry x="420" y="80" width="190" height="140" as="geometry" />
        </mxCell>
        <mxCell id="5ON31uRr9ePw7dC-DvoW-21" style="edgeStyle=orthogonalEdgeStyle;rounded=0;orthogonalLoop=1;jettySize=auto;html=1;exitX=1;exitY=0.5;exitDx=0;exitDy=0;" edge="1" parent="WIyWlLk6GJQsqaUBKTNV-1" source="5ON31uRr9ePw7dC-DvoW-12">
          <mxGeometry relative="1" as="geometry">
            <mxPoint x="839" y="140" as="targetPoint" />
          </mxGeometry>
        </mxCell>
        <mxCell id="5ON31uRr9ePw7dC-DvoW-12" value="sec_course" style="shape=rhombus;double=1;perimeter=rhombusPerimeter;whiteSpace=wrap;html=1;align=center;" vertex="1" parent="WIyWlLk6GJQsqaUBKTNV-1">
          <mxGeometry x="660" y="110" width="120" height="60" as="geometry" />
        </mxCell>
        <mxCell id="5ON31uRr9ePw7dC-DvoW-13" value="takes" style="shape=rhombus;perimeter=rhombusPerimeter;whiteSpace=wrap;html=1;align=center;" vertex="1" parent="WIyWlLk6GJQsqaUBKTNV-1">
          <mxGeometry x="270" y="110" width="120" height="60" as="geometry" />
        </mxCell>
        <mxCell id="5ON31uRr9ePw7dC-DvoW-16" value="&lt;font style=&quot;font-size: 15px;&quot;&gt;{exam_marks&lt;/font&gt;&lt;div&gt;&lt;font style=&quot;font-size: 15px;&quot;&gt;&lt;span style=&quot;white-space: pre;&quot;&gt;&#x9;&lt;/span&gt;exam&lt;/font&gt;&lt;/div&gt;&lt;div&gt;&lt;font style=&quot;font-size: 15px;&quot;&gt;&lt;span style=&quot;white-space: pre;&quot;&gt;&#x9;&lt;/span&gt;marks&lt;/font&gt;&lt;/div&gt;&lt;div&gt;&lt;font style=&quot;font-size: 15px;&quot;&gt;}&lt;/font&gt;&lt;/div&gt;" style="rounded=0;whiteSpace=wrap;html=1;fillColor=none;align=left;" vertex="1" parent="WIyWlLk6GJQsqaUBKTNV-1">
          <mxGeometry x="265" y="230" width="130" height="90" as="geometry" />
        </mxCell>
        <mxCell id="5ON31uRr9ePw7dC-DvoW-18" value="" style="line;strokeWidth=1;rotatable=0;dashed=0;labelPosition=right;align=left;verticalAlign=middle;spacingTop=0;spacingLeft=6;points=[];portConstraint=eastwest;" vertex="1" parent="WIyWlLk6GJQsqaUBKTNV-1">
          <mxGeometry x="240" y="135" width="32" height="10" as="geometry" />
        </mxCell>
        <mxCell id="5ON31uRr9ePw7dC-DvoW-19" value="" style="line;strokeWidth=1;rotatable=0;dashed=0;labelPosition=right;align=left;verticalAlign=middle;spacingTop=0;spacingLeft=6;points=[];portConstraint=eastwest;" vertex="1" parent="WIyWlLk6GJQsqaUBKTNV-1">
          <mxGeometry x="390" y="135" width="30" height="10" as="geometry" />
        </mxCell>
        <mxCell id="5ON31uRr9ePw7dC-DvoW-20" value="" style="endArrow=none;dashed=1;html=1;rounded=0;exitX=0.5;exitY=0;exitDx=0;exitDy=0;entryX=0.5;entryY=1;entryDx=0;entryDy=0;" edge="1" parent="WIyWlLk6GJQsqaUBKTNV-1" source="5ON31uRr9ePw7dC-DvoW-16" target="5ON31uRr9ePw7dC-DvoW-13">
          <mxGeometry width="50" height="50" relative="1" as="geometry">
            <mxPoint x="281" y="220" as="sourcePoint" />
            <mxPoint x="331" y="170" as="targetPoint" />
          </mxGeometry>
        </mxCell>
        <mxCell id="5ON31uRr9ePw7dC-DvoW-22" value="" style="endArrow=none;html=1;rounded=0;entryX=0;entryY=0.5;entryDx=0;entryDy=0;exitX=0.997;exitY=0.43;exitDx=0;exitDy=0;exitPerimeter=0;" edge="1" parent="WIyWlLk6GJQsqaUBKTNV-1" source="5ON31uRr9ePw7dC-DvoW-9" target="5ON31uRr9ePw7dC-DvoW-12">
          <mxGeometry width="50" height="50" relative="1" as="geometry">
            <mxPoint x="611" y="140" as="sourcePoint" />
            <mxPoint x="646" y="126" as="targetPoint" />
          </mxGeometry>
        </mxCell>
        <mxCell id="5ON31uRr9ePw7dC-DvoW-23" value="" style="endArrow=none;html=1;rounded=0;entryX=0;entryY=0.5;entryDx=0;entryDy=0;exitX=1.002;exitY=0.445;exitDx=0;exitDy=0;exitPerimeter=0;" edge="1" parent="WIyWlLk6GJQsqaUBKTNV-1" source="5ON31uRr9ePw7dC-DvoW-9">
          <mxGeometry width="50" height="50" relative="1" as="geometry">
            <mxPoint x="615" y="142" as="sourcePoint" />
            <mxPoint x="663" y="142" as="targetPoint" />
          </mxGeometry>
        </mxCell>
      </root>
    </mxGraphModel>
  </diagram>
</mxfile>
